<svg xmlns="http://www.w3.org/2000/svg" width="38" height="38" viewBox="0 0 38 38" fill="none">
  <circle cx="18.9091" cy="18.9091" r="18.9091" fill="#647B33"/>
  <path d="M19.8872 28.0052C24.8049 28.0052 28.7916 24.0186 28.7916 19.1008C28.7916 14.1831 24.8049 10.1964 19.8872 10.1964C14.9694 10.1964 10.9828 14.1831 10.9828 19.1008C10.9828 24.0186 14.9694 28.0052 19.8872 28.0052Z" fill="#E5EFEF"/>
  <path d="M19.5 29.9411C25.7006 29.9411 30.7273 28.9011 30.7273 27.6182C30.7273 26.3353 25.7006 25.2953 19.5 25.2953C13.2993 25.2953 8.27271 26.3353 8.27271 27.6182C8.27271 28.9011 13.2993 29.9411 19.5 29.9411Z" fill="white" stroke="#4C241D" stroke-width="0.883953" stroke-linecap="round" stroke-linejoin="round"/>
  <path d="M17.9514 10.5837V11.358" stroke="#4C241D" stroke-width="0.883953" stroke-linecap="round" stroke-linejoin="round"/>
  <path d="M17.9514 12.9066V13.6808" stroke="#4C241D" stroke-width="0.883953" stroke-linecap="round" stroke-linejoin="round"/>
  <path d="M16.4028 12.1322H17.1771" stroke="#4C241D" stroke-width="0.883953" stroke-linecap="round" stroke-linejoin="round"/>
  <path d="M18.7257 12.1322H19.5" stroke="#4C241D" stroke-width="0.883953" stroke-linecap="round" stroke-linejoin="round"/>
  <path d="M28.9851 14.8423C29.5196 14.8423 29.9529 14.409 29.9529 13.8744C29.9529 13.3399 29.5196 12.9066 28.9851 12.9066C28.4505 12.9066 28.0172 13.3399 28.0172 13.8744C28.0172 14.409 28.4505 14.8423 28.9851 14.8423Z" stroke="#4C241D" stroke-width="0.883953" stroke-linecap="round" stroke-linejoin="round"/>
  <path d="M12.7833 8.6866C12.7833 8.76845 12.759 8.84847 12.7135 8.91652C12.6681 8.98458 12.6034 9.03763 12.5278 9.06895C12.4522 9.10028 12.369 9.10847 12.2887 9.0925C12.2084 9.07654 12.1347 9.03712 12.0768 8.97924C12.0189 8.92136 11.9795 8.84762 11.9635 8.76734C11.9475 8.68706 11.9557 8.60384 11.9871 8.52822C12.0184 8.4526 12.0714 8.38796 12.1395 8.34248C12.2076 8.29701 12.2876 8.27274 12.3694 8.27274C12.4792 8.27274 12.5845 8.31634 12.6621 8.39395C12.7397 8.47157 12.7833 8.57683 12.7833 8.6866Z" fill="#4C241D"/>
  <path d="M26.7207 9.07371C26.7207 9.15557 26.6964 9.23558 26.6509 9.30364C26.6054 9.3717 26.5408 9.42474 26.4652 9.45607C26.3896 9.48739 26.3063 9.49559 26.2261 9.47962C26.1458 9.46365 26.072 9.42423 26.0142 9.36635C25.9563 9.30848 25.9169 9.23473 25.9009 9.15445C25.8849 9.07417 25.8931 8.99096 25.9244 8.91533C25.9558 8.83971 26.0088 8.77507 26.0769 8.7296C26.1449 8.68412 26.225 8.65985 26.3068 8.65985C26.4166 8.65985 26.5218 8.70345 26.5994 8.78107C26.6771 8.85868 26.7207 8.96395 26.7207 9.07371Z" fill="#4C241D"/>
  <path d="M21.8229 22.1979L18.7257 20.2622L14.0846 26.0694L20.9599 27.5452L21.8229 22.1979Z" fill="#FFCE56" stroke="#4C241D" stroke-width="0.883953" stroke-linecap="round" stroke-linejoin="round"/>
  <path d="M18.9192 23.3595C19.2399 23.3595 19.4999 23.0995 19.4999 22.7788C19.4999 22.4581 19.2399 22.1981 18.9192 22.1981C18.5985 22.1981 18.3385 22.4581 18.3385 22.7788C18.3385 23.0995 18.5985 23.3595 18.9192 23.3595Z" fill="#4C241D"/>
  <path d="M18.9192 25.0307C19.0939 25.0307 19.2355 24.8891 19.2355 24.7144C19.2355 24.5397 19.0939 24.3981 18.9192 24.3981C18.7445 24.3981 18.6029 24.5397 18.6029 24.7144C18.6029 24.8891 18.7445 25.0307 18.9192 25.0307Z" fill="#4C241D"/>
  <path d="M17.7578 24.1752C17.8876 24.1752 17.9928 24.07 17.9928 23.9402C17.9928 23.8104 17.8876 23.7052 17.7578 23.7052C17.628 23.7052 17.5228 23.8104 17.5228 23.9402C17.5228 24.07 17.628 24.1752 17.7578 24.1752Z" fill="#4C241D"/>
  <path d="M20.2743 23.3595H28.4044V27.6181H20.2743V23.3595Z" fill="#D9BE6F" stroke="#4C241D" stroke-width="0.883953" stroke-linecap="round" stroke-linejoin="round"/>
  <path d="M22.5972 21.0366L20.2743 23.3595H23.7586V25.4888C23.7586 25.6428 23.8198 25.7905 23.9287 25.8994C24.0376 26.0084 24.1853 26.0695 24.3393 26.0695C24.4934 26.0695 24.6411 26.0084 24.75 25.8994C24.8589 25.7905 24.9201 25.6428 24.9201 25.4888V24.3274C24.9201 24.4814 24.9812 24.6291 25.0901 24.738C25.1991 24.8469 25.3468 24.9081 25.5008 24.9081C25.6548 24.9081 25.8025 24.8469 25.9114 24.738C26.0203 24.6291 26.0815 24.4814 26.0815 24.3274V23.3595H28.4044L22.5972 21.0366Z" fill="#FFCE56" stroke="#4C241D" stroke-width="0.883953" stroke-linecap="round" stroke-linejoin="round"/>
  <path d="M25.5438 15.8047C25.5438 15.8047 24.9201 16.4295 25.2322 17.0521C25.3847 17.2835 25.466 17.5545 25.466 17.8316C25.466 18.1087 25.3847 18.3797 25.2322 18.6111" stroke="#4C241D" stroke-width="0.883953" stroke-linecap="round" stroke-linejoin="round"/>
  <path d="M11.8739 21.4373V26.8574" stroke="#4C241D" stroke-width="0.883953" stroke-linecap="round" stroke-linejoin="round"/>
  <path d="M8.58473 16.8604C8.4071 17.3593 8.34614 17.8922 8.40652 18.4184C8.4669 18.9445 8.64702 19.4498 8.93305 19.8955C9.21908 20.3411 9.60342 20.7154 10.0566 20.9894C10.5097 21.2634 11.0196 21.43 11.5472 21.4764C11.6289 21.4818 11.7109 21.4845 11.7942 21.4845C12.276 21.4853 12.7533 21.3922 13.1995 21.2104C13.9698 20.8779 14.5924 20.276 14.9507 19.5174C15.309 18.7589 15.3785 17.8957 15.1461 17.0896L14.3691 14.1937H9.47633L8.58473 16.8604Z" fill="white" stroke="#4C241D" stroke-width="0.883953" stroke-linecap="round" stroke-linejoin="round"/>
  <path d="M8.41699 18.4179C8.49789 19.2136 8.85555 19.9556 9.42759 20.5145C9.99963 21.0735 10.7497 21.4139 11.5471 21.4763C11.6288 21.4818 11.7108 21.4845 11.7941 21.4845C12.2759 21.4853 12.7532 21.3922 13.1994 21.2104C13.9697 20.8779 14.5923 20.276 14.9506 19.5174C15.3089 18.7589 15.3784 17.8957 15.146 17.0896L15.0891 16.884C14.1094 17.1723 13.1739 17.5939 12.309 18.1368C10.5765 19.1473 9.24936 18.8627 8.41699 18.4179Z" fill="#EFEFD2" stroke="#4C241D" stroke-width="0.883953" stroke-linecap="round" stroke-linejoin="round"/>
  <path d="M21.4899 15.8047C21.4899 15.8047 20.8662 16.4284 21.1802 17.0521C21.3326 17.2835 21.4139 17.5545 21.4139 17.8316C21.4139 18.1087 21.3326 18.3797 21.1802 18.6111" stroke="#4C241D" stroke-width="0.883953" stroke-linecap="round" stroke-linejoin="round"/>
  <path d="M23.3609 14.5577C23.3609 14.5577 22.7372 15.181 23.0489 15.8047C23.2016 16.0361 23.2829 16.3072 23.2829 16.5844C23.2829 16.8616 23.2016 17.1328 23.0489 17.3641" stroke="#4C241D" stroke-width="0.883953" stroke-linecap="round" stroke-linejoin="round"/>
  <path d="M16.3286 26.6812C16.1707 27.4357 14.8962 27.8078 13.4815 27.512C12.0669 27.2162 11.0483 26.3653 11.2059 25.6107C11.3635 24.8562 12.6383 24.4845 14.0526 24.7799C15.4668 25.0753 16.4862 25.927 16.3286 26.6812Z" fill="#E66353" stroke="#4C241D" stroke-width="0.883953" stroke-linecap="round" stroke-linejoin="round"/>
  <path d="M18.7704 27.7282C18.928 26.9737 17.9091 26.1224 16.4945 25.8267C15.0798 25.5311 13.8052 25.9031 13.6476 26.6576C13.4899 27.4121 14.5088 28.2634 15.9235 28.559C17.3381 28.8547 18.6127 28.4827 18.7704 27.7282Z" fill="#F53E28" stroke="#4C241D" stroke-width="0.883953" stroke-linecap="round" stroke-linejoin="round"/>
  <path d="M21.2128 28.0768C21.0552 28.831 19.7803 29.203 18.3661 28.9076C16.9518 28.6122 15.9325 27.7609 16.09 27.0063C16.2476 26.2518 17.5225 25.8797 18.9371 26.1755C20.3518 26.4713 21.3703 27.3222 21.2128 28.0768Z" fill="#F96E43" stroke="#4C241D" stroke-width="0.883953" stroke-linecap="round" stroke-linejoin="round"/>
</svg>