<svg xmlns="http://www.w3.org/2000/svg" width="31" height="30" viewBox="0 0 31 30" fill="none">
  <g filter="url(#filter0_d_47_24)">
    <path d="M14 1C10.425 1 7.5 4.5 7.5 8.8125C7.5 13.125 10.425 16.625 14 16.625C17.575 16.625 20.5 13.125 20.5 8.8125C20.5 4.5 17.575 1 14 1ZM7.2075 16.625C3.7625 16.7812 1 19.5 1 22.875V26H27V22.875C27 19.5 24.27 16.7812 20.7925 16.625C19.0375 18.5312 16.6325 19.75 14 19.75C11.3675 19.75 8.9625 18.5312 7.2075 16.625Z" fill="#78A518"/>
  </g>
  <defs>
    <filter id="filter0_d_47_24" x="0.5" y="0.5" width="30" height="29" filterUnits="userSpaceOnUse" color-interpolation-filters="sRGB">
      <feFlood flood-opacity="0" result="BackgroundImageFix"/>
      <feColorMatrix in="SourceAlpha" type="matrix" values="0 0 0 0 0 0 0 0 0 0 0 0 0 0 0 0 0 0 127 0" result="hardAlpha"/>
      <feOffset dx="1.5" dy="1.5"/>
      <feGaussianBlur stdDeviation="1"/>
      <feComposite in2="hardAlpha" operator="out"/>
      <feColorMatrix type="matrix" values="0 0 0 0 0 0 0 0 0 0 0 0 0 0 0 0 0 0 0.25 0"/>
      <feBlend mode="normal" in2="BackgroundImageFix" result="effect1_dropShadow_47_24"/>
      <feBlend mode="normal" in="SourceGraphic" in2="effect1_dropShadow_47_24" result="shape"/>
    </filter>
  </defs>
</svg>